<svg width="1380" height="494" viewBox="0 0 1380 494" fill="none" xmlns="http://www.w3.org/2000/svg">
<path d="M584.411 159.923C580.219 162.674 579.347 167.53 582.892 174.492C583.961 170.646 584.495 166.519 584.495 162.224C584.495 161.467 584.467 160.681 584.411 159.923Z" fill="#273480"/>
<path d="M188.502 370.654C196.942 331.355 217.339 268.896 235.627 212.753C177.951 290.651 107.615 391.006 59.0826 468.904C52.0489 480.133 40.7951 485.045 26.7278 473.817C8.44037 457.676 0 440.833 0 415.569C0 402.937 2.11009 390.304 5.62691 374.163C30.2446 269.597 86.5138 110.292 120.979 44.3247C130.826 26.7801 142.783 26.0783 151.927 41.5176C158.96 54.1497 161.07 63.2729 161.07 75.905C161.07 95.555 151.927 126.434 137.859 164.33C114.648 226.087 100.581 254.86 74.5566 342.583C138.563 244.333 226.483 127.135 288.379 52.7462C296.116 43.623 307.37 40.114 317.217 54.1497C325.657 65.3783 330.581 75.905 330.581 91.3443C330.581 103.976 327.064 120.819 317.92 147.487C296.116 212.051 276.422 259.071 250.398 359.426C323.547 246.439 427.645 122.223 495.872 35.9033C508.532 20.4641 520.489 24.6748 522.599 40.8158C526.116 66.0801 517.676 98.3621 446.636 189.594C391.07 261.176 309.48 365.742 244.771 465.395C236.33 477.326 225.78 481.536 213.119 469.606C196.239 452.763 184.281 433.113 184.281 407.849C184.281 397.322 185.688 384.69 188.502 370.654Z" fill="#273480"/>
<path d="M1372.49 418.207C1352.09 458.209 1306.37 494 1262.76 494C1219.15 494 1200.16 473.648 1197.35 442.068C1173.44 468.736 1097.53 479.655 1061.69 480.75C1001.79 482.575 948.838 459.416 952.327 439.513C929.707 460.707 900.475 475.22 871.524 475.22C825.102 475.22 804.001 452.061 804.001 415.569C804.001 371.356 838.466 310.301 865.194 268.896C878.558 245.737 889.108 228.894 884.185 228.894C877.855 228.894 811.035 273.106 773.757 333.46C749.842 372.76 724.521 421.183 707.64 463.29C702.014 475.922 691.463 478.027 683.023 467.501C679.365 463.15 675.848 458.434 673.401 452.454C655.366 465.143 633.928 474.518 610.604 474.518C582.807 474.518 557.768 457.732 546.795 429.155C522.234 457.17 486.278 474.518 454.458 474.518C411.552 474.518 392.562 449.956 392.562 414.867C392.562 401.533 395.375 386.795 401.002 368.549C418.586 319.424 463.601 238.017 489.626 201.524C500.176 187.489 508.617 186.085 517.76 196.612C531.124 210.648 536.751 240.824 518.464 275.914C505.1 306.09 472.745 358.724 460.788 386.795C454.458 402.936 450.941 417.674 450.941 428.902C450.941 440.131 453.754 446.447 461.491 446.447C489.626 446.447 526.201 399.428 548.005 351.706C549.13 349.18 550.396 347.215 551.775 345.783C552.76 343.144 553.857 340.422 555.039 337.671C569.106 303.283 595.834 247.842 623.968 197.314C602.164 194.507 589.503 186.787 583.877 178.365C583.342 177.579 582.864 176.793 582.414 176.036C578.615 188.415 569.444 197.314 556.361 197.314C533.853 197.314 514.862 176.26 514.862 154.505C514.862 134.855 529.633 116.608 545.81 116.608C564.548 116.608 582.639 139.487 584.355 159.221C587.421 157.705 591.81 157.059 597.24 157.312C613.418 158.014 632.409 157.312 647.883 155.908C669.687 118.012 684.458 94.8532 700.635 71.6943C711.185 56.255 719.626 56.9568 727.363 70.2907C732.286 78.7121 735.1 90.6425 735.1 99.0639C735.1 111.696 732.286 127.837 723.846 147.487C745.65 150.294 757.607 161.523 762.531 169.944C769.565 182.576 764.641 190.998 747.76 188.892C735.1 187.489 716.812 188.892 701.338 190.998C674.61 236.614 634.519 306.09 609.901 359.426C601.461 378.374 597.24 396.62 597.24 412.06C597.24 433.113 604.274 447.851 616.231 447.851C634.209 447.851 656.126 428.846 676.017 400.915C677.03 397.771 678.184 394.459 679.506 391.006C707.64 317.319 846.907 82.221 903.879 9.23548C915.133 -4.8002 925.683 -1.99306 932.014 12.0426C935.53 19.7622 937.64 28.8854 937.64 38.7104C937.64 57.6586 929.2 83.6246 912.319 113.1C898.252 136.258 854.644 201.524 847.61 211.349C868.711 195.91 893.329 187.489 906.692 187.489C927.09 187.489 947.488 209.244 947.488 236.614C947.488 246.439 945.377 256.264 939.751 266.089C901.066 334.863 883.481 364.338 875.744 381.181C869.414 396.62 866.601 411.358 866.601 422.586C866.601 437.324 870.118 446.447 879.965 446.447C904.582 446.447 941.861 396.62 962.962 353.812C963.44 352.801 963.974 351.875 964.565 351.032C982.346 307.045 1014.76 246.186 1053.16 192.401C1062.3 180.471 1074.97 181.874 1083.41 192.401C1091.14 202.226 1093.96 214.156 1093.96 224.683C1093.96 253.456 1042.61 334.863 1017.99 388.901C1005.33 416.972 1019.71 443.836 1068.07 441.001C1115.9 438.194 1181.17 412.593 1217.04 356.45C1258.54 289.079 1276.83 241.358 1302.15 209.076C1312 195.742 1323.25 192.935 1331.69 204.865C1338.73 214.69 1342.24 225.918 1342.24 241.358C1342.24 265.218 1327.47 296.097 1302.86 336.8C1282.46 369.784 1255.03 417.505 1255.03 444.875C1255.03 457.507 1259.25 464.525 1268.39 464.525C1291.6 464.525 1327.47 416.102 1352.79 371.89C1359.83 359.959 1371.78 357.854 1377.41 371.188C1380.23 377.504 1383.04 397.856 1372.49 418.207Z" fill="#273480"/>
<path d="M1150.65 174.014C1159.82 153.831 1173.07 140.974 1179.48 151.249C1185.62 159.866 1183.4 180.892 1174.67 201.974C1165.45 223.757 1151.94 234.929 1145.47 226.227C1139.34 217.609 1142.46 192.794 1150.65 173.986V174.014Z" fill="#273480"/>
<path d="M1215.69 174.014C1224.87 153.831 1238.12 140.974 1244.53 151.249C1250.67 159.866 1248.44 180.892 1239.72 201.974C1230.49 223.757 1216.99 234.929 1210.52 226.227C1204.38 217.609 1207.51 192.794 1215.69 173.986V174.014Z" fill="#273480"/>
</svg>
