<svg width="506" height="182" viewBox="0 0 506 182" fill="none" xmlns="http://www.w3.org/2000/svg">
<path d="M214.284 58.6382C212.747 59.6469 212.427 61.4275 213.727 63.9802C214.119 62.57 214.315 61.057 214.315 59.4822C214.315 59.2043 214.305 58.9161 214.284 58.6382Z" fill="#1C48A1"/>
<path d="M69.1172 135.907C72.212 121.497 79.6911 98.5951 86.3965 78.0094C65.2487 106.572 39.4587 143.369 21.6636 171.932C19.0846 176.049 14.9582 177.85 9.8002 173.733C3.0948 167.814 0 161.639 0 152.375C0 147.743 0.7737 143.112 2.0632 137.193C11.0897 98.8524 31.7217 40.4405 44.3588 16.2524C47.9694 9.81936 52.3537 9.56203 55.7064 15.2231C58.2854 19.8549 59.0591 23.2 59.0591 27.8318C59.0591 35.0368 55.7064 46.3589 50.5484 60.2543C42.0377 82.8985 36.8797 93.4487 27.3374 125.614C50.8063 89.5888 83.0438 46.6163 105.739 19.3402C108.576 15.9951 112.702 14.7085 116.313 19.8549C119.408 23.972 121.213 27.8318 121.213 33.4929C121.213 38.1247 119.924 44.3004 116.571 54.0786C108.576 77.7521 101.355 94.9926 91.8124 131.789C118.634 90.3608 156.803 44.815 181.82 13.1645C186.462 7.50347 190.846 9.04739 191.62 14.9658C192.909 24.2293 189.814 36.0661 163.767 69.5178C143.392 95.7646 113.476 134.105 89.7492 170.645C86.6544 175.019 82.7859 176.563 78.1437 172.189C71.9541 166.013 67.5698 158.808 67.5698 149.545C67.5698 145.685 68.0856 141.053 69.1172 135.907Z" fill="#1C48A1"/>
<path d="M503.246 153.343C495.767 168.01 479.003 181.133 463.013 181.133C447.024 181.133 440.06 173.671 439.029 162.092C430.26 171.87 402.428 175.874 389.285 176.275C367.322 176.944 347.907 168.453 349.187 161.155C340.893 168.926 330.174 174.248 319.559 174.248C302.538 174.248 294.801 165.756 294.801 152.375C294.801 136.164 307.438 113.777 317.238 98.5952C322.138 90.1036 326.007 83.9279 324.201 83.9279C321.88 83.9279 297.38 100.139 283.711 122.269C274.942 136.679 265.658 154.434 259.468 169.873C257.405 174.505 253.537 175.277 250.442 171.417C249.101 169.822 247.811 168.092 246.914 165.9C240.301 170.552 232.44 173.99 223.888 173.99C213.696 173.99 204.515 167.835 200.492 157.357C191.486 167.629 178.302 173.99 166.635 173.99C150.903 173.99 143.939 164.984 143.939 152.118C143.939 147.229 144.971 141.825 147.034 135.135C153.482 117.122 169.987 87.2731 179.53 73.8924C183.398 68.746 186.493 68.2313 189.846 72.0911C194.746 77.2375 196.809 88.3023 190.104 101.168C185.203 112.233 173.34 131.532 168.956 141.825C166.635 147.743 165.345 153.147 165.345 157.264C165.345 161.381 166.377 163.697 169.214 163.697C179.53 163.697 192.94 146.457 200.935 128.959C201.348 128.033 201.812 127.312 202.318 126.787C202.679 125.82 203.081 124.821 203.514 123.813C208.672 111.204 218.473 90.8755 228.789 72.3484C220.794 71.3192 216.151 68.4886 214.088 65.4008C213.892 65.1126 213.717 64.8244 213.552 64.5465C212.159 69.0856 208.796 72.3484 203.999 72.3484C195.746 72.3484 188.783 64.6288 188.783 56.6519C188.783 49.4469 194.199 42.7565 200.131 42.7565C207.001 42.7565 213.634 51.1452 214.264 58.3811C215.388 57.8253 216.997 57.5885 218.988 57.6812C224.92 57.9385 231.883 57.6812 237.557 57.1665C245.552 43.2712 250.968 34.7796 256.9 26.288C260.768 20.6269 263.863 20.8843 266.7 25.7734C268.505 28.8612 269.537 33.2357 269.537 36.3235C269.537 40.9553 268.505 46.8737 265.41 54.0787C273.405 55.1079 277.79 59.2251 279.595 62.3129C282.174 66.9447 280.369 70.0326 274.179 69.2606C269.537 68.746 262.831 69.2606 257.158 70.0326C247.357 86.7584 232.657 112.233 223.631 131.79C220.536 138.737 218.988 145.428 218.988 151.089C218.988 158.808 221.567 164.212 225.952 164.212C232.544 164.212 240.58 157.244 247.873 147.002C248.245 145.85 248.668 144.635 249.152 143.369C259.468 116.35 310.533 30.1478 331.423 3.38645C335.549 -1.75997 339.417 -0.730688 341.739 4.41573C343.028 7.24626 343.802 10.5914 343.802 14.1939C343.802 21.1416 340.707 30.6625 334.517 41.4699C329.359 49.9615 313.37 73.8924 310.791 77.4949C318.528 71.8338 327.554 68.746 332.454 68.746C339.933 68.746 347.412 76.7229 347.412 86.7584C347.412 90.3609 346.639 93.9634 344.575 97.5659C330.391 122.783 323.943 133.591 321.107 139.767C318.785 145.428 317.754 150.831 317.754 154.948C317.754 160.352 319.043 163.697 322.654 163.697C331.68 163.697 345.349 145.428 353.086 129.731C353.261 129.36 353.458 129.021 353.674 128.712C360.194 112.583 372.078 90.2683 386.159 70.5472C389.512 66.1727 394.154 66.6874 397.249 70.5472C400.086 74.1497 401.117 78.5241 401.117 82.384C401.117 92.9341 382.291 122.783 373.264 142.597C368.622 152.89 373.894 162.74 391.627 161.701C409.164 160.671 433.097 151.284 446.25 130.699C461.466 105.996 468.171 88.4979 477.456 76.6611C481.066 71.772 485.193 70.7428 488.288 75.1172C490.867 78.7197 492.156 82.8368 492.156 88.4979C492.156 97.2468 486.74 108.569 477.714 123.494C470.235 135.588 460.177 153.085 460.177 163.121C460.177 167.753 461.724 170.326 465.077 170.326C473.587 170.326 486.74 152.571 496.025 136.36C498.604 131.985 502.988 131.213 505.051 136.102C506.083 138.418 507.114 145.88 503.246 153.343Z" fill="#1C48A1"/>
<path d="M421.904 63.8054C425.267 56.4048 430.126 51.6907 432.478 55.4579C434.727 58.6178 433.912 66.3271 430.714 74.057C427.33 82.0443 422.378 86.1408 420.006 82.95C417.757 79.7901 418.902 70.6913 421.904 63.7951V63.8054Z" fill="#1C48A1"/>
<path d="M445.755 63.8054C449.118 56.4048 453.977 51.6907 456.329 55.4579C458.578 58.6178 457.763 66.3271 454.565 74.057C451.181 82.0443 446.229 86.1408 443.857 82.95C441.608 79.7901 442.753 70.6913 445.755 63.7951V63.8054Z" fill="#1C48A1"/>
</svg>
